<!--
 * @Author: your name
 * @Date: 2021-05-20 22:58:57
 * @LastEditTime: 2021-05-20 23:02:31
 * @LastEditors: Please set LastEditors
 * @Description: In User Settings Edit
 * @FilePath: \HuiQue-Online-judge\src\assets\1比1 logo.svg
-->
<svg xmlns="http://www.w3.org/2000/svg" xmlns:xlink="http://www.w3.org/1999/xlink" width="100" height="100" viewBox="0 0 100 100">
  <defs>
    <clipPath id="clip-画板_1">
      <rect width="100" height="100"/>
    </clipPath>
  </defs>
  <g id="画板_1" data-name="画板 – 1" clip-path="url(#clip-画板_1)">
    <rect width="100" height="100" fill="#00000000"/>
    <g id="组_2" data-name="组 2" transform="translate(-402.216 68.019) rotate(-30)">
      <path id="减去_1" data-name="减去 1" d="M41.35,27.266H0V3.945c.738.051,1.494.078,2.248.078A32.049,32.049,0,0,0,17.779,0H41.35V27.265Z" transform="translate(359.515 208.365)" fill="#91b493"/>
      <g id="斐波那契圆小鸟" transform="translate(344.799 168.639)" style="isolation: isolate">
        <path id="路径_15" data-name="路径 15" d="M373.2,199.945a4.255,4.255,0,1,1-4.254,4.255,4.255,4.255,0,0,1,4.254-4.255m0-.6a4.85,4.85,0,1,0,4.85,4.85A4.85,4.85,0,0,0,373.2,199.35Z" transform="translate(-291.269 -174.412)"/>
        <path id="路径_16" data-name="路径 16" d="M238.816,222.79v.042l.393.2c-.137-.077-.268-.161-.4-.244Z" transform="translate(-238.81 -183.904)"/>
        <path id="路径_17" data-name="路径 17" d="M260.66,230.45q2.13.44,4.326.672l-.494-.452h-.143a30.2,30.2,0,0,1-3.689-.22Z" transform="translate(-247.658 -187.006)"/>
        <path id="路径_18" data-name="路径 18" d="M323.636,171.359h.892a50.322,50.322,0,0,1-43.23,35.107c-.28-.423-.6-.863-.833-1.315l-.25-.422-.2.071h0l-.137-.232c-.488-.809-.94-1.642-1.345-2.481a30.579,30.579,0,0,1-3.059-13.424c0-.75.03-1.523.083-2.3a51.542,51.542,0,0,0,18.232,6.177l.488.065.155-.458a30.641,30.641,0,0,1,4.8-8.807c.518-.666,1.035-1.279,1.571-1.868.25-.28.524-.559.827-.869a30.675,30.675,0,0,1,22.017-9.211m0-.6a31.389,31.389,0,0,0-22.433,9.39c-.292.292-.595.6-.845.887-.559.6-1.089,1.244-1.6,1.9a31.305,31.305,0,0,0-4.891,8.979,50.678,50.678,0,0,1-18.827-6.575c-.107,1.083-.167,2.178-.167,3.291a31.352,31.352,0,0,0,3.118,13.686,22,22,0,0,0,1.368,2.529l.143.232c.083.143.173.286.262.422l.19-.059c.333.559.684,1.107,1.053,1.636a50.929,50.929,0,0,0,44.312-36.3c-.559-.03-1.119-.042-1.684-.042Z" transform="translate(-253.421 -162.838)"/>
        <line id="直线_10" data-name="直线 10" y1="0.006" transform="translate(1.273)" fill="none" stroke="#000" stroke-miterlimit="10" stroke-width="1"/>
        <line id="直线_11" data-name="直线 11" y1="0.006" transform="translate(1.273)" fill="none" stroke="#000" stroke-miterlimit="10" stroke-width="1"/>
        <path id="路径_20" data-name="路径 20" d="M350.471,201.7a50.59,50.59,0,0,0-6.409-.4q-2.077,0-4.118.167A50.918,50.918,0,0,1,293.49,246.4q-2.035.161-4.118.161a50.691,50.691,0,0,1-32.781-11.96h0a50.8,50.8,0,0,1-17.72-32.5,3.2,3.2,0,0,0-.042-.333v-.042c.131.083.262.167.4.244a31.06,31.06,0,0,0,12.6,4.314,30.178,30.178,0,0,0,3.689.22h.143l.494.452.071.071h-.036c1.107,1.047,2.261,2.047,3.457,2.975a50.579,50.579,0,0,0,23.8,10.36c-.256-.381-.506-.756-.738-1.148h0l-.286-.1c-.107-.161-.208-.327-.309-.494h0c-.333-.107-.66-.22-.988-.339l-.6-.226-.541-.22c-.179-.065-.357-.143-.536-.22q-.678-.286-1.339-.6l-.6-.3-.6-.327c-.417-.22-.827-.452-1.232-.7l-.6-.369c-.214-.131-.422-.268-.631-.4l-.547-.375c-.2-.131-.393-.274-.6-.417l-.72-.541c-.5-.387-.988-.785-1.464-1.19l-.3-.268c-.1-.083-.2-.179-.3-.268-.22-.2-.434-.4-.649-.6l-.036-.036a30.762,30.762,0,0,1-3.38-4.112c-.369-.53-.72-1.077-1.053-1.636l-.19.059c-.089-.137-.179-.28-.262-.422l-.143-.232q-.744-1.232-1.369-2.529a31.354,31.354,0,0,1-3.118-13.686c0-1.113.06-2.208.167-3.291a50.678,50.678,0,0,0,18.827,6.575,31.3,31.3,0,0,1,4.814-9.027c.512-.655,1.041-1.285,1.6-1.9.274-.3.553-.6.845-.887a31.388,31.388,0,0,1,22.433-9.39c.565,0,1.125,0,1.684.042a31.536,31.536,0,0,1,8.009,1.482h0a30.456,30.456,0,0,1,5.95,2.642h0a31.572,31.572,0,0,1,11.782,11.9h0A51.02,51.02,0,0,1,350.471,201.7Z" transform="translate(-238.818 -162.834)" fill="#91b493"/>
        <path id="路径_21" data-name="路径 21" d="M373.2,199.945a4.255,4.255,0,1,1-4.254,4.255,4.255,4.255,0,0,1,4.254-4.255m0-.6a4.85,4.85,0,1,0,4.85,4.85A4.85,4.85,0,0,0,373.2,199.35Z" transform="translate(-291.269 -174.412)"/>
        <circle id="椭圆_7" data-name="椭圆 7" cx="4.863" cy="4.863" r="4.863" transform="matrix(0.16, -0.987, 0.987, 0.16, 76.672, 33.137)" fill="#fff"/>
      </g>
      <path id="减去_3" data-name="减去 3" d="M50.549,69.591h-.077A50.871,50.871,0,0,1,.048,25.129a1.24,1.24,0,0,0-.023-.206C.018,24.881.01,24.839.006,24.8v0L0,24.79v-.038l0,0,0,0v0c.121.077.258.164.4.244a31.115,31.115,0,0,0,6.065,2.84A31.117,31.117,0,0,0,13,29.312l.056.007-.028-.006L13,29.306a30.323,30.323,0,0,0,3.642.22h.191l.494.452.006.006.071.071h-.036c1.138,1.077,2.3,2.078,3.457,2.975a50.685,50.685,0,0,0,8.618,5.509,50.678,50.678,0,0,0,9.522,3.655c-.762-.5-1.516-1.037-2.241-1.591a39.313,39.313,0,0,1-8.455-8.862A39.644,39.644,0,0,1,25.7,27.5a21.975,21.975,0,0,1-1.12-2.124,31.351,31.351,0,0,1-3.118-13.686c0-1.066.056-2.173.167-3.291l.017.01.041.024,0-.016A50.745,50.745,0,0,0,32.9,13.327a50.858,50.858,0,0,0,7.556,1.645A33.16,33.16,0,0,1,45.33,5.963c.53-.677,1.053-1.3,1.6-1.9.257-.285.533-.575.845-.887A31.485,31.485,0,0,1,51.421,0V36.479H93.257V3.85a31.609,31.609,0,0,1,4.377,6,51.02,51.02,0,0,1,14.013,14.87,50.786,50.786,0,0,0-6.387-.4h-.021c-1.378,0-2.764.056-4.118.167A50.9,50.9,0,0,1,63.5,67.923a51.218,51.218,0,0,1-8.838,1.507C53.316,69.537,51.931,69.591,50.549,69.591Z" transform="translate(344.834 182.777)" fill="#91b493"/>
    </g>
  </g>
</svg>
