<?xml version="1.0" encoding="utf-8"?>
<!-- Generator: Adobe Illustrator 19.0.0, SVG Export Plug-In . SVG Version: 6.00 Build 0)  -->
<svg version="1.1" id="图层_1" xmlns="http://www.w3.org/2000/svg" xmlns:xlink="http://www.w3.org/1999/xlink" x="0px" y="0px"
	 viewBox="0 0 1105.5 368.5" style="enable-background:new 0 0 1105.5 368.5;" xml:space="preserve">
<style type="text/css">
	.st0{stroke:#0099CC;stroke-width:6;stroke-miterlimit:10;}
</style>
<g id="XMLID_5_">
	<path id="XMLID_6_" class="st0" d="M168.1,164.8l9.4-47.3h-1.3l5.5-19.2H203l-3.5,12.4l0.6,57.2c12.9,1.9,35.4,4.6,67.4,8.2l1-91.4
		l28.4,23.8l34.5-44.7l-27.4,116c2.8,0.4,6.9,0.8,12.3,1.1l-1,17.8h-15.5l-16.5,69.6l-19.7-2.5l4.2-67.1h-68.1
		c0,39.8-0.8,69.2-2.3,88.3l-24.8-21.2l-31.3,39.9l20.3-107h-49.4l39-18.4l-6.8-11.9C154.9,165.4,162.8,164.2,168.1,164.8z"/>
	<path id="XMLID_8_" class="st0" d="M495.6,229.6l74.5,103.6l-98.1-87.4l-43.9,32c-6.5,0-11.1-1.7-13.9-5.1
		c-0.4-0.8-3.9-6.6-10.3-17.5L354.3,171l88.1-72.7l-26.1-69.9l39.4,59.4L502.4,49L464,100.5l67.4,102.7L495.6,229.6z M450.1,119.2
		l-41,55.5l19.4,68.5l17.7-20.4L424.6,203l8.1-15.6v-43.9l37.7,50.9l5.5-6.5L450.1,119.2z"/>
	<path id="XMLID_11_" class="st0" d="M648.5,277.7c-6.5,0-11.1-1.7-13.9-5.1c-0.4-0.8-3.9-6.6-10.3-17.5L574.6,171l88.1-72.7
		l-26.1-69.9l39.4,59.4L722.7,49l-38.4,51.5l67.8,102.7L648.5,277.7z M670.5,119.2l-41,55.5l19.4,68.5l47.4-55.2L670.5,119.2z"/>
	<path id="XMLID_14_" class="st0" d="M916.3,285.6l-125.2-93.4l11.3-14.7l88.4,44.4l40-116.9l19,4.2L916.3,285.6z"/>
</g>
</svg>
